# xmcd
#
# Track frame offsets:
#	150
#	20392
#	42975
#	59685
#	85400
#	103395
#	124277
#	147020
#	161997
#	175400
#	191280
#	201747
#
# Disc length: 2923 seconds
#
# Revision: 1
# Processed by: cddbd v1.5.2PL0 Copyright (c) Steve Scherf et al.
# Submitted via: audiograbber 1.83.01
#
DISCID=b90b690c
DTITLE=Barry White - Greatest Hits
DYEAR=1900
DGENRE=Dance
TTITLE0=You´re the First, the Last, My Everything
TTITLE1=America
TTITLE2=This Love
TTITLE3=Let me in and let´s beginn with love
TTITLE4=Your Love, Your Love
TTITLE5=Free
TTITLE6=Didn´t we make it happen baby
TTITLE7=You
TTITLE8=Our theme, part1
TTITLE9=We Can´t let go of love
TTITLE10=Our theme, part 2
TTITLE11=You make my life easy livin
EXTD=
EXTT0=
EXTT1=
EXTT2=
EXTT3=
EXTT4=
EXTT5=
EXTT6=
EXTT7=
EXTT8=
EXTT9=
EXTT10=
EXTT11=
PLAYORDER=
